# xmcd
#
# Track frame offsets: 
#        225
#        18033
#        33633
#        45336
#        61780
#        71479
#        90961
#        108382
#        122947
#        142301
#        159886
#
# Disc length: 2432 seconds
#
# Revision: 0
# Processed by: cddbd v1.5.2PL0 Copyright (c) Steve Scherf et al.
# Submitted via: ExactAudioCopy v0.99pb5
#
DISCID=88097d0b
DTITLE=Claude Hay - Deep Fried Satisfied
DYEAR=2010
DGENRE=Blues
TTITLE0=Get Me Some
TTITLE1=How Can You Live With Yourself
TTITLE2=Deep Fried Satisfied
TTITLE3=On Hold
TTITLE4=Two Zero Seven
TTITLE5=Friend
TTITLE6=Heading Home
TTITLE7=We Will Rock You
TTITLE8=Don't Give Me That Shit
TTITLE9=Don't Forget
TTITLE10=Miss You So
EXTD=
EXTT0=
EXTT1=
EXTT2=
EXTT3=
EXTT4=
EXTT5=
EXTT6=
EXTT7=
EXTT8=
EXTT9=
EXTT10=
PLAYORDER=
